<?xml version="1.0" encoding="UTF-8" standalone="no"?>
<svg width="186px" height="190px" viewBox="0 0 186 190" version="1.1" xmlns="http://www.w3.org/2000/svg" xmlns:xlink="http://www.w3.org/1999/xlink" xmlns:sketch="http://www.bohemiancoding.com/sketch/ns">
    <!-- Generator: Sketch 3.4.2 (15857) - http://www.bohemiancoding.com/sketch -->
    <title>irc</title>
    <desc>Created with Sketch.</desc>
    <defs>
        <linearGradient x1="50%" y1="0%" x2="50%" y2="100%" id="linearGradient-1">
            <stop stop-color="#FFD57B" offset="0%"></stop>
            <stop stop-color="#E74325" offset="100%"></stop>
        </linearGradient>
    </defs>
    <g id="Page-1" stroke="none" stroke-width="1" fill="none" fill-rule="evenodd" sketch:type="MSPage">
        <path d="M185.638607,79.8783865 L185.638607,79.8783865 C185.37526,57.4978551 175.578033,37.1274686 157.971567,22.4368889 C141.148696,8.40075362 118.851716,0.670415459 95.1864385,0.670415459 C94.6385672,0.670415459 94.0897751,0.678676329 93.540983,0.687855072 C48.5750226,1.40655072 0.733428574,31.5183382 0.128468178,79.8793043 C0.12478501,80.188628 0.114656297,80.4942802 0.114656297,80.8045217 C0.114656297,98.0275169 5.2057157,113.102686 15.2478741,125.61056 C23.325983,135.671382 34.6729038,144.108483 49.016082,150.732783 C49.0713296,150.758483 49.1238147,150.784184 49.179983,150.809884 L49.1680127,183.572493 C49.1670919,186.003024 50.5418345,188.226116 52.7204286,189.316551 C53.6366167,189.77457 54.6264682,190.000367 55.6126365,190.000367 C56.9763296,190.000367 58.3308147,189.569884 59.4652306,188.726357 L91.2371612,165.123217 C94.0916167,163.003845 94.6809236,158.978048 92.5529731,156.132638 C90.427785,153.289063 86.389191,152.699787 83.5338147,154.820077 L62.0637058,170.769981 L62.0729137,146.629884 C62.0738345,144.046986 60.5241414,141.715585 58.1374484,140.708676 C54.9183593,139.35114 51.8852702,137.913749 49.016082,136.40201 C24.8158246,123.655488 13.0057454,105.393459 13.0057454,80.8045217 C13.0057454,80.4988696 13.0149533,80.1968889 13.0195573,79.8930725 C13.6309632,39.499256 54.666983,14.3017681 93.381686,13.5390145 C93.983884,13.5270821 94.5851612,13.520657 95.1864385,13.520657 C133.036518,13.520657 172.171102,38.3216232 172.746597,79.8783865 C172.751201,80.1867923 172.760409,80.4933623 172.760409,80.8045217 C172.760409,115.224812 140.649627,136.024763 110.597736,144.013024 C107.158577,144.927227 105.113498,148.448193 106.030607,151.876454 C106.947716,155.305633 110.480795,157.342396 113.919033,156.429111 C148.596062,147.210899 185.651498,122.502638 185.651498,80.8045217 C185.651498,80.4951981 185.64229,80.1867923 185.638607,79.8783865" id="irc" fill="url(#linearGradient-1)" sketch:type="MSShapeGroup"></path>
    </g>
</svg>