<?xml version="1.0" encoding="UTF-8" standalone="no"?>
<svg width="193px" height="163px" viewBox="0 0 193 163" version="1.1" xmlns="http://www.w3.org/2000/svg" xmlns:xlink="http://www.w3.org/1999/xlink" xmlns:sketch="http://www.bohemiancoding.com/sketch/ns">
    <!-- Generator: Sketch 3.4.2 (15857) - http://www.bohemiancoding.com/sketch -->
    <title>mail_p</title>
    <desc>Created with Sketch.</desc>
    <defs>
        <linearGradient x1="50%" y1="0%" x2="50%" y2="100%" id="linearGradient-1">
            <stop stop-color="#A3D83F" offset="0%"/>
            <stop stop-color="#219DA0" offset="100%"/>
        </linearGradient>
    </defs>
    <g id="Page-1" stroke="none" stroke-width="1" fill="none" fill-rule="evenodd" sketch:type="MSPage">
        <path d="M180.429893,40.8999046 C176.80314,40.8999046 173.864786,43.8391968 173.864786,47.4650116 L173.864786,144.765525 L173.864786,144.79835 L19.125214,144.79835 L19.125214,144.765525 L19.125214,26.7258386 L96.5784706,85.4732297 C99.1079126,87.831041 103.033847,87.823538 105.552034,85.4554101 L110.675631,80.6394352 L184.714094,16.4120555 C186.676123,14.5681983 187.312939,11.7133147 186.32067,9.21013315 C185.330276,6.70695163 182.909628,5.06379914 180.216996,5.06379914 L177.70256,5.06379914 L50.818737,5.06379914 C47.1910464,5.06379914 44.25363,8.00309133 44.25363,11.6289061 C44.25363,15.2547209 47.1910464,18.1940131 50.818737,18.1940131 L163.650417,18.1940131 L160.882756,20.7947334 L101.049309,71.6677475 L101.037116,71.6780641 L19.125214,8.7730846 L17.0365721,6.82699931 C15.1242502,5.04410382 12.3378312,4.56578888 9.94250505,5.60776515 C7.546241,6.64974142 5.995,9.01505568 5.995,11.6289061 L5.995,144.765525 L5.995,151.363457 C5.995,154.99021 8.93429219,157.928564 12.560107,157.928564 L180.429893,157.928564 C184.05477,157.928564 186.995,154.99021 186.995,151.363457 L186.995,144.765525 L186.995,47.4650116 C186.995,43.8391968 184.05477,40.8999046 180.429893,40.8999046" id="mail_p" fill="url(#linearGradient-1)" sketch:type="MSShapeGroup"/>
    </g>
</svg>